HIERARCHY
ROOT Hips
{
	OFFSET -0.001795 -0.223333 0.028219
	CHANNELS 6 Xposition Yposition Zposition Zrotation Yrotation Xrotation
	JOINT LeftUpLeg
	{
		OFFSET 0.069520 -0.091406 -0.006815
		CHANNELS 3 Zrotation Yrotation Xrotation
		JOINT LeftLeg
		{
			OFFSET 0.034277 -0.375199 -0.004496
			CHANNELS 3 Zrotation Yrotation Xrotation
			JOINT LeftFoot
			{
				OFFSET -0.013596 -0.397961 -0.043693
				CHANNELS 3 Zrotation Yrotation Xrotation
				JOINT LeftToe
				{
					OFFSET 0.026358 -0.055791 0.119288
					CHANNELS 3 Zrotation Yrotation Xrotation
					End Site
					{
						OFFSET 0.000000 0.000000 0.000000
					}
				}
			}
		}
	}
	JOINT RightUpLeg
	{
		OFFSET -0.067670 -0.090522 -0.004320
		CHANNELS 3 Zrotation Yrotation Xrotation
		JOINT RightLeg
		{
			OFFSET -0.038290 -0.382569 -0.008850
			CHANNELS 3 Zrotation Yrotation Xrotation
			JOINT RightFoot
			{
				OFFSET 0.015774 -0.398415 -0.042312
				CHANNELS 3 Zrotation Yrotation Xrotation
				JOINT RightToe
				{
					OFFSET -0.025372 -0.048144 0.123348
					CHANNELS 3 Zrotation Yrotation Xrotation
					End Site
					{
						OFFSET 0.000000 0.000000 0.000000
					}
				}
			}
		}
	}
	JOINT Spine
	{
		OFFSET -0.002533 0.108963 -0.026696
		CHANNELS 3 Zrotation Yrotation Xrotation
		JOINT Spine1
		{
			OFFSET 0.005487 0.135180 0.001092
			CHANNELS 3 Zrotation Yrotation Xrotation
			JOINT Spine2
			{
				OFFSET 0.001457 0.052922 0.025425
				CHANNELS 3 Zrotation Yrotation Xrotation
				JOINT Neck
				{
					OFFSET -0.002778 0.213870 -0.042857
					CHANNELS 3 Zrotation Yrotation Xrotation
					JOINT Head
					{
						OFFSET 0.005152 0.064970 0.051349
						CHANNELS 3 Zrotation Yrotation Xrotation
						End Site
						{
							OFFSET 0.000000 0.000000 0.000000
						}
					}
				}
				JOINT LeftShoulder
				{
					OFFSET 0.078845 0.121749 -0.034090
					CHANNELS 3 Zrotation Yrotation Xrotation
					JOINT LeftArm
					{
						OFFSET 0.090977 0.030469 -0.008868
						CHANNELS 3 Zrotation Yrotation Xrotation
						JOINT LeftForeArm
						{
							OFFSET 0.259612 -0.012772 -0.027456
							CHANNELS 3 Zrotation Yrotation Xrotation
							JOINT LeftHand
							{
								OFFSET 0.249234 0.008986 -0.001171
								CHANNELS 3 Zrotation Yrotation Xrotation
								End Site
								{
									OFFSET 0.000000 0.000000 0.000000
								}
							}
						}
					}
				}
				JOINT RightShoulder
				{
					OFFSET -0.081759 0.118833 -0.038615
					CHANNELS 3 Zrotation Yrotation Xrotation
					JOINT RightArm
					{
						OFFSET -0.096012 0.032551 -0.009143
						CHANNELS 3 Zrotation Yrotation Xrotation
						JOINT RightForeArm
						{
							OFFSET -0.253742 -0.013329 -0.021401
							CHANNELS 3 Zrotation Yrotation Xrotation
							JOINT RightHand
							{
								OFFSET -0.255298 0.007772 -0.005559
								CHANNELS 3 Zrotation Yrotation Xrotation
								End Site
								{
									OFFSET 0.000000 0.000000 0.000000
								}
							}
						}
					}
				}
			}
		}
	}
}
MOTION
Frames: 17
Frame Time: 0.050000
0.000000 0.857410 0.000000 -4.329256 12.560793 -5.438342 17.887967 -0.214884 -11.342284 -11.550912 1.589723 33.648692 8.527643 13.921922 -12.055794 0.000000 0.000000 0.000000 -19.465505 -1.722411 -11.858967 2.520278 -0.497611 16.626011 -7.421445 -17.149398 19.569353 0.000000 0.000000 0.000000 -3.222127 -0.472593 14.698642 5.726990 -0.572065 -23.740093 1.269981 -6.696969 23.561140 3.395652 -1.078037 -19.165582 0.000000 0.000000 0.000000 -16.682508 -8.975819 3.373274 -54.751850 -34.282783 7.530307 159.274149 -67.234978 -139.436508 0.000000 0.000000 0.000000 10.777285 8.567724 3.602589 45.451541 32.553458 5.554151 -116.368262 37.998803 -47.547979 0.000000 0.000000 0.000000
-0.001474 0.854222 0.004438 -4.494786 13.657126 -5.031776 19.173169 -0.197820 -12.955155 -13.083090 2.008027 35.297638 8.170360 13.174681 -11.585001 0.000000 0.000000 0.000000 -20.099082 -1.936955 -11.986716 3.858151 -0.973296 17.377437 -8.041995 -18.056272 18.697289 0.000000 0.000000 0.000000 -5.041532 -0.277979 14.197001 7.594246 -0.906493 -26.141037 1.657672 -7.267330 25.544344 4.144091 -1.757176 -18.139862 0.000000 0.000000 0.000000 -17.721876 -8.950502 3.396468 -56.120215 -33.984594 7.442212 166.796637 -67.516703 -149.952480 0.000000 0.000000 0.000000 9.801924 8.550453 3.616021 47.819074 33.554783 6.290195 -118.313381 38.743875 -49.548599 0.000000 0.000000 0.000000
-0.002313 0.854646 0.008463 -4.225484 13.359535 -5.802897 17.918544 -0.215195 -12.494602 -11.333648 1.315226 36.752317 8.175473 13.511509 -10.604016 0.000000 0.000000 0.000000 -20.697239 -1.914160 -10.701640 4.550210 -1.139340 16.896725 -7.824127 -17.811374 18.052215 0.000000 0.000000 0.000000 -6.071003 -0.165407 13.729815 10.233376 -1.708544 -24.738635 -0.051055 -5.830401 25.625177 5.146073 -2.229614 -18.465252 0.000000 0.000000 0.000000 -19.011645 -8.038534 2.637807 -55.488402 -32.921895 6.708480 170.256380 -66.284775 -155.233710 0.000000 0.000000 0.000000 12.611372 8.280833 3.850216 45.835358 34.264537 6.077797 -117.322568 38.085287 -47.267052 0.000000 0.000000 0.000000
-0.002925 0.853727 0.011746 -4.555507 13.855445 -6.483406 18.296238 -0.228993 -12.166613 -11.133394 1.119776 37.405017 8.018526 13.005028 -10.658597 0.000000 0.000000 0.000000 -21.206505 -1.993318 -9.871074 5.960208 -1.616800 17.323205 -7.954168 -18.034874 17.602490 0.000000 0.000000 0.000000 -5.287560 -0.254084 13.469322 9.428374 -1.532345 -24.324379 -0.037432 -7.257397 25.476964 4.365685 -2.189873 -15.874946 0.000000 0.000000 0.000000 -18.743928 -6.170500 1.906874 -56.030868 -30.665954 5.636377 173.777386 -68.413939 -160.631536 0.000000 0.000000 0.000000 11.143682 7.430084 3.198580 48.372919 33.985657 6.571645 -116.246256 38.555183 -47.448637 0.000000 0.000000 0.000000
-0.003263 0.855370 0.014155 -4.156660 13.277404 -6.991338 17.632014 -0.211465 -11.557425 -10.669144 0.990335 37.973486 7.917063 13.316383 -9.188086 0.000000 0.000000 0.000000 -21.339059 -1.960945 -9.666575 5.106478 -1.327523 17.487817 -7.138090 -16.727660 18.498337 0.000000 0.000000 0.000000 -5.223888 -0.247448 13.226385 9.169470 -1.472504 -24.373764 -0.326410 -7.209896 25.641130 3.971945 -2.081907 -14.867686 0.000000 0.000000 0.000000 -19.588686 -5.765794 1.753969 -54.714462 -28.235922 4.142986 177.940017 -69.816742 -166.962923 0.000000 0.000000 0.000000 11.627281 6.734371 2.857505 48.924329 32.903921 6.158955 -116.733865 41.616638 -52.143970 0.000000 0.000000 0.000000
-0.003459 0.856793 0.014781 -4.039111 12.227849 -7.105713 17.835039 -0.151195 -10.979201 -11.149992 1.381242 37.758015 7.963903 13.865869 -8.197339 0.000000 0.000000 0.000000 -21.569968 -1.972499 -10.365858 4.441351 -1.046280 17.091565 -5.681692 -14.554525 21.485726 0.000000 0.000000 0.000000 -4.597676 -0.269085 12.676644 8.607944 -1.385151 -23.826795 0.057002 -7.420575 25.882293 3.199094 -1.543366 -15.468276 0.000000 0.000000 0.000000 -20.153266 -5.093751 1.609550 -54.668460 -27.673049 3.812566 179.306108 -71.613984 -168.667849 0.000000 0.000000 0.000000 9.836084 7.152633 2.859026 49.666066 32.560489 6.168332 -114.961129 42.566543 -52.372338 0.000000 0.000000 0.000000
-0.005007 0.859488 0.013803 -3.437197 11.357905 -6.979635 17.331908 -0.120558 -10.596618 -11.290407 1.604667 37.265304 7.950594 14.326849 -6.771177 0.000000 0.000000 0.000000 -21.885845 -2.095344 -11.838785 4.029406 -0.911878 18.028275 -5.140301 -13.973018 23.729928 0.000000 0.000000 0.000000 -4.028008 -0.309211 12.949067 8.259913 -1.311352 -23.709959 -0.258324 -6.465685 25.280361 2.363331 -0.832973 -15.438220 0.000000 0.000000 0.000000 -20.471798 -5.174363 1.519214 -53.935718 -27.508016 3.714721 176.363072 -71.012249 -164.914659 0.000000 0.000000 0.000000 10.211986 6.961951 2.814010 47.869598 31.519892 5.424575 -116.261461 43.335863 -54.666319 0.000000 0.000000 0.000000
-0.009605 0.861610 0.012559 -3.171655 10.853809 -6.284044 17.362634 -0.105795 -10.610827 -11.353769 1.746206 36.032318 7.977908 14.576794 -6.227808 0.000000 0.000000 0.000000 -21.693607 -2.122232 -13.111068 4.206514 -0.958380 18.469695 -5.475151 -14.529542 23.642766 0.000000 0.000000 0.000000 -3.011121 -0.382813 12.896034 7.491345 -1.090822 -23.760214 -0.436998 -5.666615 25.612685 2.273942 -0.627646 -15.936973 0.000000 0.000000 0.000000 -21.020670 -5.532705 1.575197 -53.268402 -28.989843 4.322695 171.165765 -69.424293 -157.385170 0.000000 0.000000 0.000000 10.267970 6.770390 2.808635 46.792378 31.451782 5.167172 -118.489490 43.393691 -56.482895 0.000000 0.000000 0.000000
-0.018532 0.862777 0.012532 -2.772322 11.475537 -5.767460 17.218587 -0.172814 -10.344143 -10.739459 1.439842 34.258064 7.781979 13.951845 -6.560090 0.000000 0.000000 0.000000 -21.901034 -2.227251 -13.305969 4.695198 -1.141254 18.476666 -5.849721 -14.960665 22.697812 0.000000 0.000000 0.000000 -2.371061 -0.453802 13.073126 6.940334 -0.910110 -23.870929 -0.928775 -5.385791 25.493882 2.477622 -0.655384 -16.089117 0.000000 0.000000 0.000000 -21.223600 -6.006288 1.624230 -51.868647 -31.687638 5.437537 164.252337 -66.760622 -146.789494 0.000000 0.000000 0.000000 10.582665 7.151782 3.086048 44.490265 31.135544 4.620181 -118.267071 42.240313 -54.570277 0.000000 0.000000 0.000000
-0.032386 0.864923 0.014780 -3.075035 12.599802 -5.110937 17.970521 -0.251530 -10.451772 -9.639402 0.923249 32.350222 7.299374 12.808034 -6.281177 0.000000 0.000000 0.000000 -21.256537 -2.239919 -13.630485 5.473253 -1.470303 18.689189 -6.538792 -15.793185 21.800525 0.000000 0.000000 0.000000 -2.083996 -0.470170 12.607083 7.443044 -1.031782 -23.650421 -1.710003 -5.194822 24.692997 2.851226 -0.821465 -15.506797 0.000000 0.000000 0.000000 -20.336675 -5.923137 1.305899 -52.396208 -33.311108 6.454674 162.875418 -66.169606 -145.128640 0.000000 0.000000 0.000000 10.993259 6.287495 2.828910 44.249470 30.213586 4.335528 -118.758596 44.670291 -57.925434 0.000000 0.000000 0.000000
-0.049531 0.866214 0.019015 -3.641390 14.750768 -4.447845 19.365289 -0.390570 -10.915362 -8.583799 0.392021 30.283864 6.459000 10.811704 -5.982401 0.000000 0.000000 0.000000 -20.246720 -2.114834 -12.525258 6.380475 -1.787746 17.107396 -7.856077 -17.526154 20.217284 0.000000 0.000000 0.000000 -1.809748 -0.512629 12.437272 6.504494 -0.687704 -24.210050 -1.207257 -6.390752 24.558348 3.019229 -1.002387 -15.030689 0.000000 0.000000 0.000000 -19.873781 -5.240758 0.894278 -51.919404 -33.964824 6.666066 163.393733 -65.536830 -145.753348 0.000000 0.000000 0.000000 10.926809 5.023570 2.279971 46.050383 28.151997 3.838539 -120.563883 45.976655 -61.120921 0.000000 0.000000 0.000000
-0.067039 0.866454 0.023613 -4.471084 16.170383 -4.509506 20.920074 -0.472289 -11.610601 -7.389382 -0.140832 30.050279 5.602473 9.405466 -4.591225 0.000000 0.000000 0.000000 -18.781749 -1.903161 -11.869817 7.280777 -2.138202 16.694818 -9.085470 -19.402377 18.581972 0.000000 0.000000 0.000000 -2.063540 -0.527417 12.696990 7.231506 -0.847368 -24.362826 -1.010206 -6.215294 24.008715 4.468331 -1.942947 -14.793249 0.000000 0.000000 0.000000 -19.163795 -5.077542 0.541984 -51.624627 -33.798359 6.601435 162.509409 -65.704687 -145.381540 0.000000 0.000000 0.000000 11.828611 3.861306 1.921914 46.771128 26.892485 3.490785 -121.118277 47.445152 -62.957446 0.000000 0.000000 0.000000
-0.081858 0.863532 0.027302 -5.094601 16.897705 -4.545239 22.599150 -0.477469 -12.689165 -7.207838 -0.320377 30.907006 5.068862 8.722320 -3.571218 0.000000 0.000000 0.000000 -17.903597 -1.819087 -12.069539 8.474490 -2.639886 17.277262 -9.843170 -20.841676 16.331021 0.000000 0.000000 0.000000 -2.188154 -0.566930 13.300052 7.290710 -0.839354 -24.393408 -0.174423 -6.195083 23.787953 5.187644 -2.353782 -15.266891 0.000000 0.000000 0.000000 -19.301436 -4.446400 0.078831 -51.106258 -32.582458 5.944232 163.711049 -65.942861 -147.661270 0.000000 0.000000 0.000000 12.876101 3.565058 1.887427 46.995341 26.714982 3.428520 -119.873680 48.579500 -62.981925 0.000000 0.000000 0.000000
-0.091836 0.858977 0.029256 -5.216887 16.900573 -5.088453 23.836143 -0.484388 -12.533305 -7.734165 -0.168797 31.396510 4.965626 8.468885 -3.661938 0.000000 0.000000 0.000000 -17.127543 -1.703152 -12.169431 8.361662 -2.739272 18.438174 -10.052879 -21.604065 13.730784 0.000000 0.000000 0.000000 -2.342758 -0.594595 13.900308 7.940609 -1.069853 -23.567208 0.352998 -5.000005 23.287333 6.253598 -3.144447 -14.220086 0.000000 0.000000 0.000000 -20.485324 -4.524738 -0.310662 -49.366285 -30.299517 4.751066 163.329214 -66.118516 -148.122910 0.000000 0.000000 0.000000 14.409145 3.469159 2.083480 44.849983 27.226238 3.270050 -116.591294 47.417836 -57.987193 0.000000 0.000000 0.000000
-0.096927 0.855318 0.030129 -5.062250 16.389925 -5.673607 24.175308 -0.458319 -12.039874 -7.882381 -0.109603 32.038034 5.098952 8.664618 -3.914117 0.000000 0.000000 0.000000 -17.527032 -1.830247 -12.920358 9.153030 -3.233467 20.682000 -9.726210 -21.328384 12.133384 0.000000 0.000000 0.000000 -2.346671 -0.633534 14.562120 8.759874 -1.337924 -23.300863 0.268712 -4.257810 23.566867 6.503542 -3.232151 -14.485474 0.000000 0.000000 0.000000 -22.082364 -3.866932 -0.959280 -48.399901 -27.828847 3.617790 165.230273 -67.199613 -151.784799 0.000000 0.000000 0.000000 14.818097 4.496413 2.703568 43.923971 28.391513 3.516725 -114.290728 45.953615 -53.839835 0.000000 0.000000 0.000000
-0.098416 0.854919 0.029992 -4.913853 15.184855 -6.353925 24.285896 -0.443722 -10.609910 -8.083551 0.107826 31.743664 5.330186 9.231141 -3.849704 0.000000 0.000000 0.000000 -17.180131 -1.715518 -13.245342 8.546875 -3.050298 21.897187 -9.162655 -20.468667 11.595493 0.000000 0.000000 0.000000 -2.619961 -0.615893 15.042255 9.694354 -1.757129 -22.012459 0.592654 -2.608119 22.886756 7.314348 -3.907125 -13.381024 0.000000 0.000000 0.000000 -23.579866 -3.852510 -1.423966 -47.471904 -25.311246 2.682427 165.520939 -67.487762 -152.961591 0.000000 0.000000 0.000000 14.473344 5.984436 3.522435 42.723369 28.567441 3.488584 -112.249984 43.207229 -48.492555 0.000000 0.000000 0.000000
-0.098462 0.857069 0.028919 -4.710607 15.176407 -6.358014 24.031356 -0.486396 -10.109608 -8.057566 0.149743 30.831310 5.229270 9.121024 -3.557915 0.000000 0.000000 0.000000 -17.509137 -1.805902 -13.543216 8.713024 -3.156245 22.340242 -9.043934 -20.140595 12.464574 0.000000 0.000000 0.000000 -2.747107 -0.592849 14.929071 10.306964 -1.970803 -21.763471 0.242508 -2.497454 23.191589 7.659773 -4.198648 -13.250779 0.000000 0.000000 0.000000 -24.247976 -3.437376 -1.782981 -47.308958 -24.050876 2.168422 167.187206 -67.255174 -155.305236 0.000000 0.000000 0.000000 14.697687 6.981830 4.079294 41.514066 28.567999 3.234837 -112.323581 42.665222 -47.896773 0.000000 0.000000 0.000000
